<?xml version="1.0" encoding="utf-8"?>
<!-- Generator: Adobe Illustrator 16.0.0, SVG Export Plug-In . SVG Version: 6.00 Build 0)  -->
<!DOCTYPE svg PUBLIC "-//W3C//DTD SVG 1.1//EN" "http://www.w3.org/Graphics/SVG/1.1/DTD/svg11.dtd">
<svg version="1.1" id="Capa_1" xmlns="http://www.w3.org/2000/svg" xmlns:xlink="http://www.w3.org/1999/xlink" x="0px" y="0px"
	 width="64px" height="64px" viewBox="0 0 64 64" enable-background="new 0 0 64 64" xml:space="preserve">
<path fill="#030104" d="M32,0C14.328,0,0,14.328,0,32s14.328,32,32,32s32-14.328,32-32S49.672,0,32,0z M32,52.427
	c-2.501,0-4.213-1.928-4.213-4.427c0-2.57,1.784-4.427,4.213-4.427c2.568,0,4.213,1.856,4.213,4.427
	C36.213,50.501,34.568,52.427,32,52.427z M33.659,35.523c-0.638,2.173-2.646,2.21-3.315,0c-0.771-2.549-3.509-12.227-3.509-18.512
	c0-8.293,10.376-8.333,10.376,0C37.208,23.333,34.323,33.261,33.659,35.523z"/>
</svg>
