<?xml version="1.0" encoding="utf-8"?>
<!-- Generator: Adobe Illustrator 16.0.0, SVG Export Plug-In . SVG Version: 6.00 Build 0)  -->
<!DOCTYPE svg PUBLIC "-//W3C//DTD SVG 1.1//EN" "http://www.w3.org/Graphics/SVG/1.1/DTD/svg11.dtd">
<svg version="1.1" id="Layer_1" xmlns="http://www.w3.org/2000/svg" xmlns:xlink="http://www.w3.org/1999/xlink" x="0px" y="0px"
	 width="64px" height="64px" viewBox="0 0 64 64" enable-background="new 0 0 64 64" xml:space="preserve">
<path d="M58,0H6C2.691,0,0,2.691,0,6v52c0,3.309,2.691,6,6,6h52c3.309,0,6-2.691,6-6V6C64,2.691,61.309,0,58,0z M62,58
	c0,2.209-1.791,4-4,4H6c-2.209,0-4-1.791-4-4V6c0-2.209,1.791-4,4-4h52c2.209,0,4,1.791,4,4V58z M36.242,32l14.85-14.85
	c1.169-1.169,1.17-3.072,0.001-4.242c-0.567-0.567-1.321-0.879-2.122-0.879s-1.555,0.312-2.121,0.879L32,27.757L17.15,12.908
	c-0.565-0.566-1.319-0.879-2.121-0.879c-0.801,0-1.554,0.312-2.121,0.878c-0.568,0.567-0.88,1.321-0.88,2.122
	c0,0.802,0.313,1.556,0.88,2.122L27.757,32L12.908,46.85c-0.567,0.566-0.879,1.32-0.879,2.121s0.312,1.555,0.879,2.121
	c0.567,0.567,1.321,0.879,2.122,0.879c0.802,0,1.555-0.313,2.122-0.88L32,36.242l14.85,14.85c0.566,0.566,1.32,0.879,2.121,0.879
	s1.555-0.313,2.121-0.879s0.879-1.32,0.879-2.121s-0.313-1.555-0.879-2.121L36.242,32z M49.678,49.678
	c-0.195,0.195-0.451,0.293-0.707,0.293s-0.512-0.098-0.707-0.293L32,33.414L15.736,49.678c-0.195,0.195-0.451,0.293-0.707,0.293
	s-0.512-0.098-0.708-0.293c-0.391-0.391-0.391-1.023,0-1.414L30.586,32L14.322,15.736c-0.391-0.39-0.391-1.023,0-1.414
	c0.195-0.195,0.452-0.293,0.708-0.293s0.511,0.098,0.707,0.293L32,30.586l16.264-16.264c0.195-0.195,0.451-0.293,0.707-0.293
	s0.512,0.098,0.707,0.293c0.391,0.391,0.391,1.023,0,1.414L33.414,32l16.264,16.264C50.068,48.654,50.068,49.287,49.678,49.678z"/>
</svg>
