<svg xmlns="http://www.w3.org/2000/svg" xmlns:xlink="http://www.w3.org/1999/xlink"><defs><symbol viewBox="0 0 64 64" id="alert"><path fill="#030104" d="M32 0C14.328 0 0 14.328 0 32s14.328 32 32 32 32-14.328 32-32S49.672 0 32 0zm0 52.427c-2.501 0-4.213-1.928-4.213-4.427 0-2.57 1.784-4.427 4.213-4.427 2.568 0 4.213 1.856 4.213 4.427 0 2.501-1.645 4.427-4.213 4.427zm1.659-16.904c-.638 2.173-2.646 2.21-3.315 0-.771-2.549-3.509-12.227-3.509-18.512 0-8.293 10.376-8.333 10.376 0-.003 6.322-2.888 16.25-3.552 18.512z" /></symbol><symbol viewBox="0 0 64 64" id="xxx"><path d="M58 0H6C2.691 0 0 2.691 0 6v52c0 3.309 2.691 6 6 6h52c3.309 0 6-2.691 6-6V6c0-3.309-2.691-6-6-6zm4 58a4 4 0 01-4 4H6a4 4 0 01-4-4V6a4 4 0 014-4h52a4 4 0 014 4v52zM36.242 32l14.85-14.85a3.004 3.004 0 00.001-4.242c-.567-.567-1.321-.879-2.122-.879s-1.555.312-2.121.879L32 27.757 17.15 12.908a2.979 2.979 0 00-2.121-.879c-.801 0-1.554.312-2.121.878a2.979 2.979 0 00-.88 2.122c0 .802.313 1.556.88 2.122L27.757 32 12.908 46.85c-.567.566-.879 1.32-.879 2.121s.312 1.555.879 2.121a2.982 2.982 0 002.122.879c.802 0 1.555-.313 2.122-.88L32 36.242l14.85 14.85c.566.566 1.32.879 2.121.879s1.555-.313 2.121-.879.879-1.32.879-2.121-.313-1.555-.879-2.121L36.242 32zm13.436 17.678a.997.997 0 01-1.414 0L32 33.414 15.736 49.678a.997.997 0 01-1.415 0 .999.999 0 010-1.414L30.586 32 14.322 15.736a.999.999 0 01.708-1.707c.256 0 .511.098.707.293L32 30.586l16.264-16.264a.997.997 0 011.414 0 .999.999 0 010 1.414L33.414 32l16.264 16.264a1 1 0 010 1.414z" /></symbol></defs></svg>